<?xml version="1.0" encoding="iso-8859-1"?>
<!-- Generator: Adobe Illustrator 16.0.0, SVG Export Plug-In . SVG Version: 6.00 Build 0)  -->
<!DOCTYPE svg PUBLIC "-//W3C//DTD SVG 1.1//EN" "http://www.w3.org/Graphics/SVG/1.1/DTD/svg11.dtd">
<svg xmlns="http://www.w3.org/2000/svg" xmlns:xlink="http://www.w3.org/1999/xlink" version="1.1" id="Capa_1" x="0px" y="0px" width="512px" height="512px" viewBox="0 0 200.564 200.564" style="enable-background:new 0 0 200.564 200.564;" xml:space="preserve">
<g>
	<g>
		<path d="M75.524,54.915v5.212c0,0,3.629,2.588,20.122,3.005v1.846l2.189,0.767v5.176H80.724c-0.715,0-1.303,0.585-1.303,1.304    c0,0.112,0.027,0.225,0.052,0.328c-0.837,0.451-1.41,1.318-1.41,2.333c0,1.474,1.19,2.664,2.661,2.664    c1.474,0,2.664-1.19,2.664-2.664c0-0.497-0.137-0.959-0.387-1.352h13.394l-12.982,9.822c-0.429,0.329-0.603,0.871-0.472,1.37    c-0.831,0.45-1.404,1.321-1.404,2.332c0,1.474,1.185,2.664,2.667,2.664c1.458,0,2.658-1.19,2.658-2.664    c0-0.904-0.451-1.696-1.136-2.183l14.553-11.009l14.553,11.019c-0.682,0.478-1.132,1.275-1.132,2.18    c0,1.474,1.181,2.664,2.654,2.664s2.661-1.19,2.661-2.664c0-1.011-0.566-1.882-1.395-2.332c0.128-0.499-0.049-1.041-0.481-1.37    l-12.976-9.822h13.384c-0.231,0.393-0.384,0.862-0.384,1.352c0,1.474,1.188,2.664,2.674,2.664c1.461,0,2.654-1.19,2.654-2.664    c0-1.014-0.572-1.882-1.406-2.329c0.024-0.107,0.055-0.22,0.055-0.332c0-0.719-0.591-1.303-1.303-1.303h-17.114V65.75l2.189-0.767    v-1.845c16.483-0.417,20.125-3.005,20.125-3.005v-5.212l-4.238-6.129l3.093,4.476c3.24-2.761,4.896-8.123,4.896-13.841    c0-5.717-2.467-7.315-7.539-7.246h-2.898V7.937c0,0-0.396-7.937-18.072-7.937C82.596,0,82.204,7.937,82.204,7.937v24.244h-2.908    c-5.06-0.076-7.532,1.522-7.532,7.246c0,5.718,1.671,11.08,4.896,13.841L75.524,54.915z M118.352,35.141h2.898    c5.151-0.141,1.522,12.166-0.511,13.551l-2.388-3.461V35.141z M79.296,35.149h2.908v10.087l-2.39,3.461    C77.777,47.307,74.16,35,79.296,35.149z" fill="#1f5f8b"/>
		<path d="M40.645,175.222c4.545-3.057,7.663-9.073,7.663-14.492c0-7.654-6.199-13.859-13.85-13.859s-13.847,6.205-13.847,13.859    c0,5.419,3.118,11.436,7.663,14.492c-10.851,2.746-18.895,12.178-18.895,19.15c0,4.128,12.541,6.187,25.078,6.187l-7.027-7.021    l5.918-14.298h-0.064l-2.298-2.631c1.108,0.402,2.268,0.64,3.471,0.64c1.206,0,2.356-0.237,3.468-0.633l-2.295,2.63H35.57    l5.916,14.298l-7.027,7.021c12.547,0,25.078-2.064,25.078-6.187C59.537,187.399,51.493,177.974,40.645,175.222z" fill="#1f5f8b"/>
		<path d="M34.452,200.564L34.452,200.564L34.452,200.564z" fill="#1f5f8b"/>
		<path d="M106.466,175.222c4.543-3.057,7.66-9.073,7.66-14.492c0-7.654-6.195-13.859-13.847-13.859s-13.85,6.205-13.85,13.859    c0,5.419,3.117,11.436,7.663,14.492c-10.848,2.746-18.892,12.178-18.892,19.15c0,4.128,12.538,6.187,25.078,6.187l-7.027-7.021    l5.916-14.298h-0.061l-2.301-2.631c1.111,0.402,2.271,0.64,3.474,0.64s2.356-0.237,3.468-0.633l-2.296,2.63h-0.061l5.915,14.298    l-7.026,7.021c12.544,0,25.075-2.064,25.075-6.187C125.354,187.399,117.316,177.974,106.466,175.222z" fill="#1f5f8b"/>
		<path d="M100.279,200.564L100.279,200.564L100.279,200.564z" fill="#1f5f8b"/>
		<path d="M191.185,194.372c0-6.973-8.044-16.398-18.895-19.15c4.542-3.057,7.66-9.073,7.66-14.492    c0-7.654-6.193-13.859-13.848-13.859c-7.647,0-13.847,6.205-13.847,13.859c0,5.419,3.118,11.436,7.66,14.492    c-10.845,2.746-18.888,12.178-18.888,19.15c0,4.128,12.537,6.187,25.074,6.187l-7.026-7.021l5.919-14.298h-0.062l-2.302-2.637    c1.108,0.396,2.266,0.64,3.471,0.64c1.206,0,2.363-0.231,3.472-0.634l-2.296,2.631h-0.067l5.919,14.298l-7.027,7.021    C178.646,200.564,191.185,198.5,191.185,194.372z" fill="#1f5f8b"/>
		<path d="M166.103,200.564L166.103,200.564L166.103,200.564z" fill="#1f5f8b"/>
		<path d="M34.809,137.956c1.72,0,3.118-1.4,3.118-3.118v-20.265h59.235v20.265c0,1.718,1.397,3.118,3.118,3.118    s3.118-1.4,3.118-3.118v-20.265h59.235v20.265c0,1.718,1.4,3.118,3.118,3.118c1.717,0,3.117-1.4,3.117-3.118v-23.382    c0-1.718-1.4-3.118-3.117-3.118h-62.353V94.309c0-1.72-1.397-3.118-3.118-3.118s-3.118,1.397-3.118,3.118v14.029H34.809    c-1.72,0-3.118,1.4-3.118,3.118v23.382C31.691,136.556,33.088,137.956,34.809,137.956z" fill="#1f5f8b"/>
	</g>
</g>
<g>
</g>
<g>
</g>
<g>
</g>
<g>
</g>
<g>
</g>
<g>
</g>
<g>
</g>
<g>
</g>
<g>
</g>
<g>
</g>
<g>
</g>
<g>
</g>
<g>
</g>
<g>
</g>
<g>
</g>
</svg>
